<svg height="458pt" viewBox="0 -52 458.00122 458" width="458pt" xmlns="http://www.w3.org/2000/svg"><path d="m228.949219 163.25c5.601562 0 9.050781-3.097656 9.050781-10v-26.5c0-6.898438-3.449219-10-9.050781-10-5.597657 0-8.949219 3.101562-8.949219 10v26.5c0 6.902344 3.351562 10 8.949219 10zm0 0"/><path d="m61 245h336v-202h-336zm206.847656-92.5625 23.101563-45.316406c1.1875-2.503906 3.726562-4.078125 6.5-4.027344 2.699219 0 7.796875 2.242188 7.796875 5.84375-.035156.625-.207032 1.234375-.5 1.785156l-17.695313 35.277344h8.949219v-6.550781c0-3.296875 3.601562-4.699219 7.5-4.699219 3.902344 0 7.5 1.402344 7.5 4.699219v6.550781h4.550781c3.199219 0 4.800781 3.902344 4.800781 7.5 0 3.601562-2.402343 7.5-4.800781 7.5h-4.550781v10.453125c0 3.199219-3.597656 4.800781-7.5 4.800781-3.898438 0-7.5-1.601562-7.5-4.800781v-10.453125h-23.75c-2.902344 0-5.203125-1.980469-5.203125-5.480469.015625-1.078125.292969-2.132812.800781-3.082031zm-62.847656-25.6875c0-17.199219 10.648438-23.601562 24.449219-23.601562s24.550781 6.402343 24.550781 23.601562v26.5c0 17.199219-10.75 23.601562-24.550781 23.601562s-24.449219-6.402343-24.449219-23.601562zm-66.550781 25.6875 23.101562-45.316406c1.1875-2.503906 3.730469-4.078125 6.5-4.027344 2.699219 0 7.796875 2.242188 7.796875 5.84375-.035156.625-.207031 1.234375-.5 1.785156l-17.695312 35.277344h8.347656v-6.550781c0-3.296875 4.101562-4.699219 8-4.699219 3.902344 0 8 1.402344 8 4.699219v6.550781h4.152344c3.199218 0 4.800781 3.902344 4.800781 7.5 0 3.601562-2.402344 7.5-4.800781 7.5h-4.152344v10.453125c0 3.199219-4.097656 4.800781-8 4.800781-3.898438 0-8-1.601562-8-4.800781v-10.453125h-23.148438c-2.902343 0-5.199218-1.980469-5.199218-5.480469.015625-1.078125.289062-2.132812.796875-3.082031zm0 0"/><path d="m285.429688 302.675781c-9.015626 9.757813-21.691407 15.308594-34.976563 15.324219h-42.902344c-13.285156-.015625-25.960937-5.566406-34.976562-15.324219l-6.160157-6.675781h-166.414062v24.609375c-.0546875 8.851563 3.429688 17.355469 9.675781 23.625 6.242188 6.269531 14.734375 9.785156 23.582031 9.765625h391.484376c8.847656.019531 17.339843-3.496094 23.585937-9.765625 6.242187-6.269531 9.726563-14.773437 9.671875-23.625v-24.609375h-166.414062zm0 0"/><path d="m174.628906 284.359375 8.234375 9.035156c6.386719 6.828125 15.335938 10.675781 24.683594 10.605469h42.902344c9.363281.03125 18.308593-3.851562 24.683593-10.710938l8.234376-8.824218c1.304687-1.496094 3.167968-2.386719 5.152343-2.464844h148.480469v-248.609375c-.09375-18.519531-15.171875-33.4648438-33.691406-33.390625h-348.613282c-18.523437-.0742188-33.601562 14.871094-33.695312 33.390625v248.609375h148.484375c1.964844.039062 3.832031.894531 5.144531 2.359375zm-127.628906-32.359375v-216c0-3.863281 3.132812-7 7-7h350c3.867188 0 7 3.136719 7 7v216c0 3.867188-3.132812 7-7 7h-350c-3.867188 0-7-3.132812-7-7zm0 0"/></svg>